<svg width="481" height="101" viewBox="0 0 481 101" fill="none" xmlns="http://www.w3.org/2000/svg">
<path d="M478.571 80.9982C478.572 80.9982 478.569 81.0032 478.56 81.013C478.566 81.003 478.571 80.9981 478.571 80.9982ZM478.219 80.7177C478.357 80.8868 478.43 81.012 478.469 81.0961C478.426 81.1297 478.368 81.1715 478.288 81.2212C477.868 81.4849 477.134 81.7835 476.014 82.0795C473.798 82.6655 470.479 83.1389 466.187 83.5048C457.628 84.2344 445.505 84.5138 431.303 84.5341C412.698 84.5605 390.621 84.1427 368.464 83.7234C356.797 83.5026 345.108 83.2814 333.892 83.1244C317.645 82.897 302.396 82.8046 289.675 83.0452C276.986 83.2853 266.713 83.8574 260.475 84.9833C258.909 85.266 257.553 85.591 256.456 85.9707C255.399 86.3369 254.415 86.8087 253.751 87.4768C253.402 87.8289 253.095 88.2822 252.96 88.8442C252.821 89.4213 252.896 89.9859 253.106 90.4908C253.49 91.4168 254.338 92.1672 255.281 92.7973C257.227 94.0979 260.554 95.5099 265.309 97.0806C267.588 97.8336 270.223 98.6317 273.233 99.4777C226.555 99.2975 186.191 98.0096 156.853 95.1547C140.957 93.6079 128.378 91.6079 119.804 89.103C115.506 87.8475 112.32 86.4943 110.239 85.0751C108.145 83.6476 107.441 82.3526 107.438 81.235C107.449 81.2069 107.487 81.1356 107.61 81.0169C107.843 80.7926 108.276 80.5072 108.997 80.1974C110.434 79.5799 112.642 79.0195 115.589 78.5285C121.454 77.5513 129.855 76.9095 139.918 76.4596C152.988 75.8752 168.728 75.6189 185.146 75.3516C194.001 75.2075 203.054 75.0601 211.991 74.8563C237.436 74.276 261.968 73.2382 278.066 70.4869C282.099 69.7976 285.64 68.9949 288.555 68.0516C291.444 67.1165 293.834 66.0066 295.47 64.6425C297.145 63.245 298.168 61.4416 297.853 59.2747C297.558 57.2538 296.14 55.3001 293.968 53.3844C291.931 51.5888 291.19 50.3246 291.063 49.5585C291.01 49.2384 291.063 49.0076 291.19 48.7936C291.334 48.5496 291.63 48.2407 292.197 47.9099C293.358 47.2332 295.3 46.6675 298.065 46.2826C300.794 45.9026 304.185 45.7164 308.14 45.71C323.982 45.6846 348.301 48.5417 373.747 52.7932C399.173 57.0415 425.626 62.6656 445.706 68.1421C455.753 70.8825 464.159 73.5737 470.031 76.0224C472.976 77.2505 475.216 78.3899 476.695 79.4087C477.436 79.9192 477.927 80.3596 478.219 80.7177ZM107.435 81.2487C107.435 81.2488 107.435 81.2445 107.438 81.2357C107.438 81.2443 107.436 81.2487 107.435 81.2487Z" stroke="#FBC2B1" stroke-opacity="0.5" stroke-width="3"/>
<g clip-path="url(#clip0)">
<path d="M380.793 47.0623C380.376 46.8956 379.876 46.7289 379.376 46.7289C378.876 46.7289 378.376 46.8122 377.876 47.0623C377.459 47.2289 377.043 47.479 376.709 47.8123C376.376 48.1457 376.126 48.479 375.959 48.9791C375.793 49.3958 375.626 49.8958 375.626 50.3958C375.626 50.8959 375.709 51.3126 375.959 51.8126C376.126 52.2293 376.376 52.646 376.709 52.9794C377.043 53.3127 377.376 53.5627 377.876 53.7294C378.293 53.8961 378.793 53.9794 379.376 53.9794C379.876 53.9794 380.293 53.8961 380.793 53.7294C381.21 53.5627 381.626 53.3127 381.96 52.9794C382.293 52.646 382.543 52.2293 382.793 51.8126C382.96 51.3959 383.126 50.8959 383.126 50.3958C383.126 49.8958 383.043 49.3958 382.793 48.9791C382.626 48.5624 382.293 48.1457 381.96 47.8123C381.626 47.479 381.293 47.2289 380.793 47.0623Z" fill="#556D79"/>
<path d="M382.793 56.3129L372.292 58.0631L376.876 60.9799L377.71 77.8145L373.876 80.898L386.21 79.1479L380.96 75.8143L382.793 56.3129Z" fill="#556D79"/>
<path d="M418.296 53.2294L423.796 48.7291L409.295 49.6458L413.879 52.3126L413.545 62.48L400.961 62.1467L401.628 49.9791L406.295 47.3956L390.46 46.1455L394.627 50.3125L396.128 75.6477L391.877 79.0646H403.795L400.211 75.481L400.711 65.3969L413.462 65.6469L413.045 77.1478L406.878 81.2314L424.213 81.148L419.213 77.8145L418.296 53.2294Z" fill="#556D79"/>
<path d="M451.965 53.2294L457.465 48.729L442.964 49.6458L447.465 52.3126L447.215 62.48L434.547 62.1467L435.214 49.9791L439.964 47.3956L422.963 47.1456L428.297 50.3125L429.713 75.6476L425.546 79.0646H437.464L433.88 75.481L434.38 65.3969L447.048 65.6469L446.715 77.1478L440.547 81.2314L457.882 81.148L452.882 77.8145L451.965 53.2294Z" fill="#556D79"/>
<path d="M370.375 31.4778C369.292 29.6443 367.875 28.0609 366.125 26.8108C364.458 25.5607 362.458 24.644 360.291 23.9773C358.124 23.3106 356.041 22.9772 353.874 22.9772C352.374 22.8939 350.291 22.8939 348.29 22.8939C341.373 22.3938 330.123 21.8104 328.456 21.6438C325.456 21.3938 322.872 21.0604 320.705 20.8937C318.538 20.6437 316.455 20.727 314.205 21.1437C312.038 21.5604 309.954 22.2271 308.121 23.3106C306.204 24.394 304.621 25.8107 303.371 27.4775C302.037 29.1443 301.204 31.2278 300.954 33.6446C300.62 36.1448 300.704 38.2283 301.287 40.0618C301.87 41.8952 302.704 43.312 303.704 44.6454C304.704 45.8955 305.871 46.6456 307.454 47.6456L307.538 47.729C308.454 48.3123 309.288 48.8957 313.371 50.8959C314.455 51.4792 317.622 52.396 320.205 52.896C322.122 53.2294 324.039 53.396 326.622 53.6461C327.206 53.7294 331.456 53.8127 332.206 53.8961L331.623 66.647L331.456 68.3138L331.373 70.1472L331.123 72.5641L321.122 78.8979L322.955 79.0646C322.955 79.0646 324.872 79.1479 326.039 79.2312C326.622 79.3146 328.372 79.3146 328.372 79.3146C329.622 79.3146 333.039 79.4812 334.539 79.5646C335.54 79.6479 336.54 79.7313 337.456 79.8146C338.373 79.8979 339.123 79.8979 339.873 79.9813C340.707 80.0646 341.373 80.0646 341.957 80.148C343.123 80.2313 344.123 80.3146 344.957 80.3146C344.957 80.3146 346.54 80.398 346.874 80.398L338.29 73.3975V60.1465L338.706 55.1462V54.8128C338.706 54.8128 341.457 54.8962 342.123 54.8962H344.123C346.707 54.9795 348.707 54.9795 350.624 54.8962C353.291 54.6461 356.541 54.0628 357.708 53.6461C361.958 52.0626 362.875 51.6459 363.875 51.1459L363.958 51.0625C365.708 50.2292 366.875 49.6458 368.042 48.479C369.209 47.3123 370.209 45.9788 370.959 44.2287C371.709 42.4786 372.042 40.3951 372.042 37.8949C372.042 35.4781 371.459 33.3113 370.375 31.4778ZM335.29 29.061L333.123 49.3958C332.456 49.3958 329.789 49.4791 329.122 49.3958L327.289 49.1457C324.705 48.8957 322.539 48.3123 320.872 47.6456C319.205 46.9789 317.788 46.1455 316.705 45.1455C315.621 44.1454 314.871 43.1453 314.371 42.1452C313.871 41.0618 313.538 40.1451 313.371 39.2284C313.205 38.2283 313.121 37.3949 313.121 36.7282C313.121 36.0615 313.205 35.5614 313.205 35.2281C313.288 34.9781 313.288 34.5614 313.455 33.978C313.621 33.3113 313.871 32.7279 314.288 31.9778C314.621 31.2278 315.205 30.4777 315.955 29.7277C316.705 28.9776 317.705 28.2276 318.955 27.7275C320.205 27.1442 321.705 26.8108 323.539 26.4775C325.372 26.2274 327.456 26.1441 330.039 26.4775C331.373 26.6441 334.206 26.7275 335.54 27.0608L335.29 29.061ZM359.625 39.5617C359.541 40.2284 359.375 41.0618 359.125 41.9786C358.791 42.8953 358.375 43.812 357.708 44.8121C357.124 45.7288 356.208 46.6456 355.041 47.479C353.874 48.3123 352.374 48.9791 350.624 49.4791C348.874 50.0625 346.624 50.3125 344.04 50.3125H342.207C341.707 50.3125 339.873 50.2292 338.956 50.1458L340.123 27.3108C341.373 27.3108 343.123 27.4775 343.957 27.4775C346.54 27.4775 348.624 27.7275 350.457 28.2276C352.207 28.7276 353.708 29.311 354.874 29.9777C356.041 30.6444 356.958 31.4778 357.624 32.3112C358.291 33.1446 358.791 33.978 359.041 34.728C359.375 35.4781 359.541 36.1448 359.625 36.8115C359.708 37.3949 359.708 37.8116 359.708 38.0616C359.708 38.395 359.708 38.895 359.625 39.5617Z" fill="#556D79"/>
<path d="M273.952 54.3128L271.369 44.4788L244.367 48.8124L245.367 61.98L248.367 53.0627L256.034 53.3961L254.867 77.3144L247.7 82.4815L267.202 80.648L261.201 77.4811L260.201 53.146L269.118 50.8959L273.952 54.3128Z" fill="#556D79"/>
<path d="M211.864 73.9809C212.614 75.1476 213.531 76.231 214.531 77.2311C215.531 78.1478 216.698 78.9812 217.948 79.5646C219.198 80.2313 220.448 80.7313 221.865 81.0647C223.282 81.3981 224.615 81.5647 226.115 81.5647C228.282 81.5647 230.366 81.148 232.282 80.398C234.199 79.6479 235.949 78.4812 237.366 77.0644C238.783 75.5643 239.95 73.8142 240.783 71.6474C241.616 69.4805 242.033 67.0637 242.033 64.3135C242.033 61.5633 241.616 59.1465 240.783 57.063C239.95 54.8962 238.783 53.146 237.366 51.6459C235.949 50.1458 234.283 49.0624 232.449 48.3123C230.616 47.5623 228.615 47.1456 226.532 47.1456C224.115 47.1456 221.865 47.5623 219.781 48.479C217.698 49.3958 215.948 50.6458 214.364 52.2293C212.864 53.8127 211.698 55.7295 210.781 57.9797C209.947 60.1465 209.531 62.5634 209.531 65.1469C209.531 66.8137 209.781 68.3971 210.197 69.8972C210.531 71.4807 211.114 72.8141 211.864 73.9809ZM213.448 60.0632C214.031 58.4797 214.864 57.1463 215.865 56.0629C216.865 54.9795 218.031 54.1461 219.448 53.5627C220.782 52.9794 222.282 52.646 223.865 52.646C225.282 52.646 226.615 52.896 228.032 53.396C229.449 53.8961 230.616 54.6461 231.782 55.7295C232.866 56.7296 233.783 58.063 234.449 59.5632C235.116 61.0633 235.449 62.8134 235.449 64.8969C235.449 66.897 235.116 68.6471 234.449 70.1472C233.783 71.6474 232.866 72.8974 231.782 73.9809C230.699 74.9809 229.366 75.8143 227.949 76.3144C226.532 76.8144 225.032 77.0644 223.532 77.0644C222.032 77.0644 220.615 76.8144 219.281 76.3144C217.948 75.8143 216.781 74.9809 215.781 73.9809C214.781 72.9808 214.031 71.7307 213.448 70.3139C212.864 68.8972 212.614 67.2304 212.614 65.3969C212.614 63.3134 212.864 61.5633 213.448 60.0632Z" fill="#556D79"/>
<path d="M190.529 47.6456L173.695 46.1455L178.862 50.5625L180.362 75.8977L175.362 77.7311L188.029 79.3146L184.446 75.731L184.946 65.6469L197.697 65.897L197.28 77.3978L191.113 81.4814L208.447 81.3981L203.447 78.0645L202.53 53.4794L208.031 48.9791L193.53 49.8958L198.113 52.5627L197.78 62.7301L185.196 62.3967L185.862 50.2292L190.529 47.6456Z" fill="#556D79"/>
<path d="M168.111 71.8974C168.861 70.2306 169.195 68.6472 169.195 67.2304C169.195 65.647 168.778 64.1469 167.944 62.6467C167.111 61.1466 165.861 59.8132 164.111 58.6465C164.194 59.0632 164.194 59.3965 164.194 59.7299C164.194 60.0632 164.194 60.3966 164.194 60.8133C164.194 62.5634 163.944 64.3969 163.527 66.2303C163.111 68.1471 162.361 69.8973 161.444 71.4807C160.444 73.0642 159.194 74.3976 157.694 75.481C156.194 76.4811 154.36 77.0644 152.277 77.0644C150.193 77.0644 148.193 76.4811 146.36 75.3143C144.526 74.1476 142.859 72.4808 141.526 70.314C140.192 68.1471 139.109 65.647 138.276 62.6467C137.776 60.8133 137.442 58.8965 137.276 56.813L142.526 56.0629L149.86 66.5637L149.276 40.8952L140.692 51.9793L136.942 52.4793C136.942 48.9791 137.359 45.7289 138.109 42.8953C138.942 39.9785 140.026 37.4783 141.443 35.3948C142.859 33.3113 144.443 31.7279 146.36 30.5611C148.276 29.4777 150.277 28.8943 152.527 28.8943C152.943 28.8943 153.527 28.8943 154.277 28.9777C155.027 29.061 155.86 29.2277 156.777 29.561C157.694 29.8944 158.694 30.3111 159.694 30.9778C160.694 31.5612 161.611 32.4779 162.527 33.5613L163.527 45.3955L174.778 21.1438L164.861 29.061C163.194 27.2275 161.111 25.8108 158.527 24.894C156.027 23.894 153.36 23.3939 150.61 23.3939C148.61 23.3939 146.61 23.7273 144.526 24.3107C142.526 24.894 140.609 25.7274 138.776 26.8942C136.942 28.0609 135.275 29.4777 133.609 31.1445C132.025 32.8113 130.692 34.8114 129.442 36.9782C128.275 39.1451 127.358 41.6452 126.691 44.3954C126.025 47.1456 125.691 50.0625 125.691 53.3127C125.691 56.6463 126.025 59.6465 126.775 62.3134C127.525 64.9802 128.525 67.3971 129.775 69.3972C131.025 71.4807 132.525 73.2308 134.192 74.7309C135.942 76.2311 137.776 77.4811 139.692 78.3979C141.693 79.3146 143.776 80.0647 145.943 80.4814C148.11 80.9814 150.277 81.1481 152.527 81.1481C155.277 81.1481 157.61 80.7314 159.694 79.8146C161.777 78.8979 163.527 77.7312 164.861 76.3144C166.278 74.981 167.361 73.4809 168.111 71.8974Z" fill="#556D79"/>
</g>
<g filter="url(#filter0_i)">
<path d="M47.0979 70.4595C48.4075 72.2929 50.2409 74.3883 50.2409 74.3883L50.5028 89.3177H47.0979C47.0979 89.3177 38.1926 89.3177 35.8353 88.7939C33.4781 88.27 26.9301 85.3889 25.0966 83.8174C23.2632 82.2459 19.0725 76.4836 18.2867 74.3883C17.5009 72.2929 16.7152 61.8161 16.1913 57.8873C15.6675 53.9585 13.8341 53.1728 12.5245 51.6012C11.2149 50.0297 7.02416 49.5059 4.40496 49.244C1.78576 48.982 1 48.4582 1 47.4105C1 46.3628 1 45.839 2.04768 44.5294C3.09536 43.2198 5.97648 41.3864 8.85759 40.3387C11.7387 39.291 20.3821 38.5053 23.787 38.7672C27.192 39.0291 30.8589 40.8625 33.2161 42.1721C35.5734 43.4817 38.9784 47.6725 40.288 50.0297C41.5976 52.387 44.2168 57.3635 44.4787 59.7208C44.7406 62.078 45.7883 68.626 47.0979 70.4595Z" fill="#556D79"/>
</g>
<path d="M47.0979 70.4595C48.4075 72.2929 50.2409 74.3883 50.2409 74.3883L50.5028 89.3177H47.0979C47.0979 89.3177 38.1926 89.3177 35.8353 88.7939C33.4781 88.27 26.9301 85.3889 25.0966 83.8174C23.2632 82.2459 19.0725 76.4836 18.2867 74.3883C17.5009 72.2929 16.7152 61.8161 16.1913 57.8873C15.6675 53.9585 13.8341 53.1728 12.5245 51.6012C11.2149 50.0297 7.02416 49.5059 4.40496 49.244C1.78576 48.982 1 48.4582 1 47.4105C1 46.3628 1 45.839 2.04768 44.5294C3.09536 43.2198 5.97648 41.3864 8.85759 40.3387C11.7387 39.291 20.3821 38.5053 23.787 38.7672C27.192 39.0291 30.8589 40.8625 33.2161 42.1721C35.5734 43.4817 38.9784 47.6725 40.288 50.0297C41.5976 52.387 44.2168 57.3635 44.4787 59.7208C44.7406 62.078 45.7883 68.626 47.0979 70.4595Z" stroke="#556D79" stroke-width="0.4"/>
<g filter="url(#filter1_i)">
<path d="M16.9773 44.2675C14.3581 46.3628 11.2151 50.5535 11.2151 50.5535C11.2151 50.5535 12.2698 51.3393 13.0485 52.1251C13.8273 52.9108 13.8688 52.8032 14.3581 53.4347C14.8971 54.1302 15.6677 55.53 15.6677 55.53L16.1916 57.3635C16.1916 57.3635 18.5488 56.0539 20.1204 55.0062C21.6919 53.9585 25.3588 52.1251 27.4541 51.3393C29.5495 50.5535 38.4548 47.1486 38.4548 47.1486C38.4548 47.1486 36.6213 45.0532 36.0975 44.5294C35.5736 44.0055 34.7879 43.2198 34.0021 42.6959C33.2164 42.1721 32.1687 41.6483 31.121 41.1244C30.0733 40.6006 28.7637 40.0768 27.978 39.8148L24.8349 38.7672C24.8349 38.7672 19.5965 42.1721 16.9773 44.2675Z" fill="#F3F3F3"/>
</g>
<path d="M16.9773 44.2675C14.3581 46.3628 11.2151 50.5535 11.2151 50.5535C11.2151 50.5535 12.2698 51.3393 13.0485 52.1251C13.8273 52.9108 13.8688 52.8032 14.3581 53.4347C14.8971 54.1302 15.6677 55.53 15.6677 55.53L16.1916 57.3635C16.1916 57.3635 18.5488 56.0539 20.1204 55.0062C21.6919 53.9585 25.3588 52.1251 27.4541 51.3393C29.5495 50.5535 38.4548 47.1486 38.4548 47.1486C38.4548 47.1486 36.6213 45.0532 36.0975 44.5294C35.5736 44.0055 34.7879 43.2198 34.0021 42.6959C33.2164 42.1721 32.1687 41.6483 31.121 41.1244C30.0733 40.6006 28.7637 40.0768 27.978 39.8148L24.8349 38.7672C24.8349 38.7672 19.5965 42.1721 16.9773 44.2675Z" stroke="#556D79" stroke-width="0.4"/>
<g filter="url(#filter2_i)">
<path d="M21.6915 68.1023C20.3819 69.4119 18.0247 72.293 18.0247 72.8168C18.0247 73.3406 20.3819 78.3171 20.3819 78.3171C24.0488 83.2936 26.668 84.8651 26.668 84.8651C26.668 84.8651 27.9776 80.1506 29.8111 78.3171L35.3114 72.8168C36.359 71.7691 40.5498 68.888 42.6451 67.5784C44.7405 66.2688 44.7405 66.7927 45.2643 66.2688C45.7882 65.745 44.7405 65.483 44.7405 62.34C44.7405 59.197 43.169 55.792 43.169 55.792C43.169 55.792 42.6451 55.2682 41.5974 55.792C40.5498 56.3159 38.1925 57.3635 36.8829 58.1493C35.5733 58.9351 33.216 59.7208 31.6445 60.7685C30.073 61.8162 28.5015 63.1258 27.1919 63.9115C25.8823 64.6973 23.0011 66.7927 21.6915 68.1023Z" fill="#F3F3F3"/>
</g>
<path d="M21.6915 68.1023C20.3819 69.4119 18.0247 72.293 18.0247 72.8168C18.0247 73.3406 20.3819 78.3171 20.3819 78.3171C24.0488 83.2936 26.668 84.8651 26.668 84.8651C26.668 84.8651 27.9776 80.1506 29.8111 78.3171L35.3114 72.8168C36.359 71.7691 40.5498 68.888 42.6451 67.5784C44.7405 66.2688 44.7405 66.7927 45.2643 66.2688C45.7882 65.745 44.7405 65.483 44.7405 62.34C44.7405 59.197 43.169 55.792 43.169 55.792C43.169 55.792 42.6451 55.2682 41.5974 55.792C40.5498 56.3159 38.1925 57.3635 36.8829 58.1493C35.5733 58.9351 33.216 59.7208 31.6445 60.7685C30.073 61.8162 28.5015 63.1258 27.1919 63.9115C25.8823 64.6973 23.0011 66.7927 21.6915 68.1023Z" stroke="#556D79" stroke-width="0.4"/>
<g filter="url(#filter3_i)">
<path d="M40.8114 82.7698C40.0256 85.1271 40.2875 89.3178 40.2875 89.3178H49.9785L50.2404 74.3883L48.1451 72.0311C46.0498 73.6026 44.4782 75.436 43.6925 76.7456C42.9067 78.0552 41.5971 80.4125 40.8114 82.7698Z" fill="#F3F3F3"/>
</g>
<path d="M40.8114 82.7698C40.0256 85.1271 40.2875 89.3178 40.2875 89.3178H49.9785L50.2404 74.3883L48.1451 72.0311C46.0498 73.6026 44.4782 75.436 43.6925 76.7456C42.9067 78.0552 41.5971 80.4125 40.8114 82.7698Z" stroke="#556D79" stroke-width="0.4"/>
<g filter="url(#filter4_ii)">
<path d="M79.8382 33.2669C79.8382 33.2669 72.1116 40.0769 70.1472 42.4341C68.1828 44.7914 57.3131 47.4106 57.3131 47.4106C57.3131 47.4106 58.0988 53.1728 57.3131 55.0063C56.5274 56.8397 54.4319 59.9828 53.6462 62.602C52.8604 65.2212 50.5032 70.9834 49.9793 73.6026C49.4555 76.2218 49.1936 86.4367 49.9793 89.0559C50.7651 91.6751 53.3843 94.0323 54.6939 95.08C56.0036 96.1277 65.6946 99.0088 68.8376 99.5327C71.9806 100.056 86.1242 99.5327 86.1242 99.5327C86.1242 99.5327 95.0295 99.7946 97.9106 99.0088C100.792 98.2231 103.935 97.6992 105.244 96.3896C106.554 95.08 106.292 94.0323 105.244 93.2466C104.197 92.4608 99.2202 92.4608 97.9106 91.6751C96.601 90.8893 96.863 88.2701 96.863 88.2701C96.863 88.2701 97.9106 79.6267 97.9106 78.0552C97.9106 76.4837 98.4345 69.6738 97.9106 68.1023C97.3868 66.5308 96.863 63.3877 96.0772 61.8162C95.2914 60.2447 92.1484 54.4824 91.6246 53.1728C91.1007 51.8632 91.6246 48.1964 92.1484 46.6248C92.6722 45.0533 94.7676 41.1245 95.5534 39.8149C96.3391 38.5053 102.363 29.0762 102.887 28.0285C103.411 26.9809 104.982 22.7901 105.244 21.7425C105.506 20.6948 105.768 18.8614 105.506 17.5518C105.244 16.2422 105.244 15.4564 103.673 15.1945C102.101 14.9326 101.316 16.2421 100.53 17.2898C99.7441 18.3375 95.0393 23.8659 92.9342 25.1474C90.8291 26.4289 82.7193 28.8143 79.8382 33.2669Z" fill="#556D79"/>
</g>
<path d="M79.8382 33.2669C79.8382 33.2669 72.1116 40.0769 70.1472 42.4341C68.1828 44.7914 57.3131 47.4106 57.3131 47.4106C57.3131 47.4106 58.0988 53.1728 57.3131 55.0063C56.5274 56.8397 54.4319 59.9828 53.6462 62.602C52.8604 65.2212 50.5032 70.9834 49.9793 73.6026C49.4555 76.2218 49.1936 86.4367 49.9793 89.0559C50.7651 91.6751 53.3843 94.0323 54.6939 95.08C56.0036 96.1277 65.6946 99.0088 68.8376 99.5327C71.9806 100.056 86.1242 99.5327 86.1242 99.5327C86.1242 99.5327 95.0295 99.7946 97.9106 99.0088C100.792 98.2231 103.935 97.6992 105.244 96.3896C106.554 95.08 106.292 94.0323 105.244 93.2466C104.197 92.4608 99.2202 92.4608 97.9106 91.6751C96.601 90.8893 96.863 88.2701 96.863 88.2701C96.863 88.2701 97.9106 79.6267 97.9106 78.0552C97.9106 76.4837 98.4345 69.6738 97.9106 68.1023C97.3868 66.5308 96.863 63.3877 96.0772 61.8162C95.2914 60.2447 92.1484 54.4824 91.6246 53.1728C91.1007 51.8632 91.6246 48.1964 92.1484 46.6248C92.6722 45.0533 94.7676 41.1245 95.5534 39.8149C96.3391 38.5053 102.363 29.0762 102.887 28.0285C103.411 26.9809 104.982 22.7901 105.244 21.7425C105.506 20.6948 105.768 18.8614 105.506 17.5518C105.244 16.2422 105.244 15.4564 103.673 15.1945C102.101 14.9326 101.316 16.2421 100.53 17.2898C99.7441 18.3375 95.0393 23.8659 92.9342 25.1474C90.8291 26.4289 82.7193 28.8143 79.8382 33.2669Z" stroke="#556D79" stroke-width="0.4"/>
<g filter="url(#filter5_i)">
<path d="M93.7198 69.6738C93.7198 67.3165 93.1961 59.7208 93.1961 58.1493C93.1961 56.5778 92.9341 56.0539 92.9341 56.0539C92.9341 56.0539 96.339 62.0781 96.601 62.8638C96.8629 63.6496 97.7359 67.8403 97.9106 68.888C98.0852 69.9357 97.9106 73.0787 97.9106 74.6502C97.9106 76.2218 97.6486 81.4601 97.3867 82.7698C97.1248 84.0793 96.8629 85.9128 96.339 86.1747C95.8152 86.4366 94.2437 85.6027 93.7198 84.8651C93.1959 84.1275 92.9341 81.1982 92.9341 79.8886C92.9341 78.579 93.7198 72.031 93.7198 69.6738Z" fill="#F3F3F3"/>
</g>
<path d="M93.7198 69.6738C93.7198 67.3165 93.1961 59.7208 93.1961 58.1493C93.1961 56.5778 92.9341 56.0539 92.9341 56.0539C92.9341 56.0539 96.339 62.0781 96.601 62.8638C96.8629 63.6496 97.7359 67.8403 97.9106 68.888C98.0852 69.9357 97.9106 73.0787 97.9106 74.6502C97.9106 76.2218 97.6486 81.4601 97.3867 82.7698C97.1248 84.0793 96.8629 85.9128 96.339 86.1747C95.8152 86.4366 94.2437 85.6027 93.7198 84.8651C93.1959 84.1275 92.9341 81.1982 92.9341 79.8886C92.9341 78.579 93.7198 72.031 93.7198 69.6738Z" stroke="#556D79" stroke-width="0.4"/>
<g filter="url(#filter6_i)">
<path d="M34.7879 13.361C35.3118 14.1468 36.8833 16.2421 37.669 16.766C38.4548 17.2898 40.0263 16.766 40.0263 16.766L43.6932 14.6706L47.0981 11.5276L49.1935 8.90836C49.1935 8.90836 44.4789 10.218 42.9074 10.218C41.3359 10.218 38.4548 9.69412 36.8833 9.69412C35.3118 9.69412 35.3117 9.69412 34.7879 10.218C34.2641 10.7418 34.2641 12.5752 34.7879 13.361Z" fill="#556D79"/>
</g>
<path d="M34.7879 13.361C35.3118 14.1468 36.8833 16.2421 37.669 16.766C38.4548 17.2898 40.0263 16.766 40.0263 16.766L43.6932 14.6706L47.0981 11.5276L49.1935 8.90836C49.1935 8.90836 44.4789 10.218 42.9074 10.218C41.3359 10.218 38.4548 9.69412 36.8833 9.69412C35.3118 9.69412 35.3117 9.69412 34.7879 10.218C34.2641 10.7418 34.2641 12.5752 34.7879 13.361Z" stroke="#556D79" stroke-width="0.4"/>
<g filter="url(#filter7_i)">
<path d="M94.5055 8.64644L93.9817 12.5752L92.934 20.1709C92.934 20.1709 92.6721 25.1474 92.1482 25.6712C91.6244 26.1951 85.0764 28.8143 83.243 30.3858C81.4095 31.9573 77.2188 35.8861 75.6473 37.4576C74.0758 39.0291 71.4566 42.696 70.6708 43.7437C69.8851 44.7914 68.3135 46.101 67.5278 46.6248C66.742 47.1487 63.599 47.6725 62.2894 47.6725C60.9798 47.6725 55.7414 47.9344 55.4795 47.6725C55.2175 47.4106 56.5272 45.3152 56.0033 44.7914C55.4795 44.2675 51.5507 48.1963 51.2888 47.6725C51.0268 47.1487 52.5984 45.0533 52.3364 44.7914C52.0745 44.5295 47.36 47.9344 47.098 47.6725C46.8361 47.4106 49.7172 44.0056 49.4553 43.7437C49.1934 43.4818 45.7884 45.5771 45.2646 45.5771C44.7408 45.5771 43.4312 46.101 43.1692 45.5771C42.9073 45.0533 46.3123 41.9103 45.7884 41.6483C45.2646 41.3864 41.3358 44.0056 41.0739 43.7437C40.812 43.4818 42.3835 41.1245 42.1216 40.8626C41.8596 40.6007 39.7643 42.1722 39.7643 41.6483C39.7643 41.1245 41.3358 39.553 41.0739 39.2911C40.812 39.0292 39.5024 40.6007 39.2404 40.3387C38.9785 40.0768 39.7643 30.9096 39.2404 30.3858C38.7166 29.862 33.4782 26.1951 32.1686 25.1474C30.859 24.0997 27.716 20.9567 26.9302 19.6471C26.1444 18.3375 26.9302 17.2898 27.716 16.7659C28.5017 16.2421 34.264 16.766 35.8355 16.7659C37.407 16.7659 41.3358 16.504 43.955 14.1468C46.5742 11.7895 51.8126 5.50339 53.3841 4.45572C54.9556 3.40805 58.3606 1.31268 62.5513 1.05076C66.742 0.788844 69.0993 1.5746 71.4566 2.62228C73.8139 3.66996 78.5284 6.813 80.0999 7.59876C81.6715 8.38452 85.6003 9.69412 87.9575 9.4322C90.3148 9.17028 94.5055 8.64644 94.5055 8.64644Z" fill="#556D79"/>
</g>
<path d="M94.5055 8.64644L93.9817 12.5752L92.934 20.1709C92.934 20.1709 92.6721 25.1474 92.1482 25.6712C91.6244 26.1951 85.0764 28.8143 83.243 30.3858C81.4095 31.9573 77.2188 35.8861 75.6473 37.4576C74.0758 39.0291 71.4566 42.696 70.6708 43.7437C69.8851 44.7914 68.3135 46.101 67.5278 46.6248C66.742 47.1487 63.599 47.6725 62.2894 47.6725C60.9798 47.6725 55.7414 47.9344 55.4795 47.6725C55.2175 47.4106 56.5272 45.3152 56.0033 44.7914C55.4795 44.2675 51.5507 48.1963 51.2888 47.6725C51.0268 47.1487 52.5984 45.0533 52.3364 44.7914C52.0745 44.5295 47.36 47.9344 47.098 47.6725C46.8361 47.4106 49.7172 44.0056 49.4553 43.7437C49.1934 43.4818 45.7884 45.5771 45.2646 45.5771C44.7408 45.5771 43.4312 46.101 43.1692 45.5771C42.9073 45.0533 46.3123 41.9103 45.7884 41.6483C45.2646 41.3864 41.3358 44.0056 41.0739 43.7437C40.812 43.4818 42.3835 41.1245 42.1216 40.8626C41.8596 40.6007 39.7643 42.1722 39.7643 41.6483C39.7643 41.1245 41.3358 39.553 41.0739 39.2911C40.812 39.0292 39.5024 40.6007 39.2404 40.3387C38.9785 40.0768 39.7643 30.9096 39.2404 30.3858C38.7166 29.862 33.4782 26.1951 32.1686 25.1474C30.859 24.0997 27.716 20.9567 26.9302 19.6471C26.1444 18.3375 26.9302 17.2898 27.716 16.7659C28.5017 16.2421 34.264 16.766 35.8355 16.7659C37.407 16.7659 41.3358 16.504 43.955 14.1468C46.5742 11.7895 51.8126 5.50339 53.3841 4.45572C54.9556 3.40805 58.3606 1.31268 62.5513 1.05076C66.742 0.788844 69.0993 1.5746 71.4566 2.62228C73.8139 3.66996 78.5284 6.813 80.0999 7.59876C81.6715 8.38452 85.6003 9.69412 87.9575 9.4322C90.3148 9.17028 94.5055 8.64644 94.5055 8.64644Z" stroke="#556D79" stroke-width="0.4"/>
<g filter="url(#filter8_i)">
<path d="M94.5059 8.64653L93.9822 14.4087L93.4583 18.8614C93.4583 18.8614 92.6725 25.1475 92.1487 25.6713C91.6248 26.1952 85.0768 28.8144 83.2434 30.3859C81.41 31.9574 77.2192 35.8862 75.6477 37.4577C74.0762 39.0292 71.457 42.6961 70.6712 43.7438C69.8855 44.7915 68.314 46.1011 67.5282 46.6249C66.7424 47.1487 63.5994 47.6726 62.2898 47.6726C60.9802 47.6726 55.7418 47.9345 55.4799 47.6726C55.2179 47.4107 56.5276 45.3153 56.0037 44.7915C55.4799 44.2676 51.5511 48.1964 51.2891 47.6726C51.0272 47.1488 52.5988 45.0534 52.3368 44.7915C52.0749 44.5296 47.3604 47.9345 47.0984 47.6726C46.8365 47.4107 49.7176 44.0057 49.4557 43.7438C49.1938 43.4819 45.7888 45.5772 45.265 45.5772C44.7412 45.5772 43.4316 46.1011 43.1696 45.5772C42.9077 45.0534 46.3128 41.1246 46.3128 41.1246L49.4557 39.0292C49.4557 39.0292 52.5987 36.9339 54.1704 35.3623C55.742 33.7907 58.3611 30.3859 58.6229 28.8143C58.8848 27.2428 58.6229 25.1475 58.6229 24.0998C58.6229 23.0521 58.885 19.6471 59.1469 18.0756C59.4088 16.5041 60.4564 10.48 62.8137 8.64653C65.1711 6.81309 67.5283 6.02732 70.4094 6.02731C73.2905 6.02731 78.5288 6.81309 80.1003 7.59885C81.6719 8.38461 85.6007 9.69421 87.9579 9.43229C90.3152 9.17037 94.5059 8.64653 94.5059 8.64653Z" fill="#F3F3F3"/>
</g>
<path d="M94.5059 8.64653L93.9822 14.4087L93.4583 18.8614C93.4583 18.8614 92.6725 25.1475 92.1487 25.6713C91.6248 26.1952 85.0768 28.8144 83.2434 30.3859C81.41 31.9574 77.2192 35.8862 75.6477 37.4577C74.0762 39.0292 71.457 42.6961 70.6712 43.7438C69.8855 44.7915 68.314 46.1011 67.5282 46.6249C66.7424 47.1487 63.5994 47.6726 62.2898 47.6726C60.9802 47.6726 55.7418 47.9345 55.4799 47.6726C55.2179 47.4107 56.5276 45.3153 56.0037 44.7915C55.4799 44.2676 51.5511 48.1964 51.2891 47.6726C51.0272 47.1488 52.5988 45.0534 52.3368 44.7915C52.0749 44.5296 47.3604 47.9345 47.0984 47.6726C46.8365 47.4107 49.7176 44.0057 49.4557 43.7438C49.1938 43.4819 45.7888 45.5772 45.265 45.5772C44.7412 45.5772 43.4316 46.1011 43.1696 45.5772C42.9077 45.0534 46.3128 41.1246 46.3128 41.1246L49.4557 39.0292C49.4557 39.0292 52.5987 36.9339 54.1704 35.3623C55.742 33.7907 58.3611 30.3859 58.6229 28.8143C58.8848 27.2428 58.6229 25.1475 58.6229 24.0998C58.6229 23.0521 58.885 19.6471 59.1469 18.0756C59.4088 16.5041 60.4564 10.48 62.8137 8.64653C65.1711 6.81309 67.5283 6.02732 70.4094 6.02731C73.2905 6.02731 78.5288 6.81309 80.1003 7.59885C81.6719 8.38461 85.6007 9.69421 87.9579 9.43229C90.3152 9.17037 94.5059 8.64653 94.5059 8.64653Z" stroke="#556D79" stroke-width="0.4"/>
<g filter="url(#filter9_i)">
<path d="M30.1286 19.9248C29.7247 20.5466 41.9559 28.9319 41.8002 28.1511C41.6444 27.3703 38.4828 24.7534 38.5809 23.922C38.679 23.0905 40.4618 24.088 40.8657 23.4662C41.2695 22.8444 38.3213 22.6206 39.0829 22.4687L40.0983 22.2661C40.0983 22.2661 41.2119 21.2321 41.6158 20.6103C42.0197 19.9885 38.7195 20.6468 38.7195 20.6468L36.3309 20.582C36.3309 20.582 35.0003 20.5284 34.1442 20.2063C32.4996 19.5877 30.5325 19.303 30.1286 19.9248Z" fill="#F3F3F3"/>
</g>
<path d="M78.0296 10.86C76.0292 9.44322 74.5536 9.22736 72.803 9.34281C71.0525 9.45826 70.4272 9.70659 69.2671 10.5654C68.107 11.4243 67.2857 13.1617 66.8688 14.2216C66.4518 15.2816 66.2458 18.0135 66.211 19.0053C66.1761 19.997 66.5179 22.1355 66.0801 23.6961C65.6424 25.2566 62.7983 27.033 62.6037 28.2503C62.409 29.4677 64.3465 27.4092 65.0133 27.8814C65.6801 28.3537 61.843 30.3007 62.35 30.9986C62.857 31.6965 66.312 29.8176 66.9787 30.2899C67.6455 30.7621 64.6445 32.3697 65.4711 32.6163C66.2977 32.8629 68.0984 32.1296 69.9031 31.3446C71.7078 30.5595 73.8197 29.3596 75.3522 28.0733C76.8847 26.7869 79.1846 24.3657 80.3381 21.7945C81.4916 19.2233 81.4015 17.4655 80.9294 15.7759C80.4573 14.0863 80.03 12.2767 78.0296 10.86Z" fill="#7B9FB0"/>
<path d="M71.5391 20.6872C71.5391 20.6872 70.6873 17.0755 72.0979 15.2711C73.5084 13.4666 76.7211 14.1817 76.7211 14.1817" stroke="black" stroke-width="0.4" stroke-linecap="round"/>
<path d="M92.355 11.2657C91.5942 11.2657 90.6521 10.4913 90.4088 10.2332C90.1655 9.97508 90.4459 8.42631 90.6521 7.91006C90.8583 7.39381 91.8396 6.87757 92.355 6.61944C92.8705 6.36131 94.5383 6.90142 94.7837 7.13571C95.029 7.36999 95.029 7.80683 95.029 8.42634C95.029 9.04584 94.8419 9.6137 94.4094 10.2332C93.9769 10.8527 93.1158 11.2657 92.355 11.2657Z" fill="black" stroke="black" stroke-width="0.4"/>
<path d="M93.9822 8.22736C93.7513 8.22736 93.2896 7.59875 93.5204 7.59875H93.9822C94.213 7.59875 94.213 8.22736 93.9822 8.22736Z" stroke="white" stroke-width="0.4" stroke-linecap="round"/>
<path d="M86.1235 21.7425C86.1235 21.7425 87.6951 21.7425 89.5285 21.7425C91.3619 21.7425 92.9335 19.1233 92.9335 19.1233" stroke="black" stroke-width="0.4" stroke-linecap="round" stroke-linejoin="round"/>
<defs>
<filter id="filter0_i" x="0.800049" y="32.5164" width="54.9064" height="57.0013" filterUnits="userSpaceOnUse" color-interpolation-filters="sRGB">
<feFlood flood-opacity="0" result="BackgroundImageFix"/>
<feBlend mode="normal" in="SourceGraphic" in2="BackgroundImageFix" result="shape"/>
<feColorMatrix in="SourceAlpha" type="matrix" values="0 0 0 0 0 0 0 0 0 0 0 0 0 0 0 0 0 0 127 0" result="hardAlpha"/>
<feOffset dx="5" dy="-6"/>
<feGaussianBlur stdDeviation="4"/>
<feComposite in2="hardAlpha" operator="arithmetic" k2="-1" k3="1"/>
<feColorMatrix type="matrix" values="0 0 0 0 0 0 0 0 0 0 0 0 0 0 0 0 0 0 0.25 0"/>
<feBlend mode="normal" in2="shape" result="effect1_innerShadow"/>
</filter>
<filter id="filter1_i" x="10.9348" y="32.5469" width="35.8596" height="25.1137" filterUnits="userSpaceOnUse" color-interpolation-filters="sRGB">
<feFlood flood-opacity="0" result="BackgroundImageFix"/>
<feBlend mode="normal" in="SourceGraphic" in2="BackgroundImageFix" result="shape"/>
<feColorMatrix in="SourceAlpha" type="matrix" values="0 0 0 0 0 0 0 0 0 0 0 0 0 0 0 0 0 0 127 0" result="hardAlpha"/>
<feOffset dx="8" dy="-6"/>
<feGaussianBlur stdDeviation="4"/>
<feComposite in2="hardAlpha" operator="arithmetic" k2="-1" k3="1"/>
<feColorMatrix type="matrix" values="0 0 0 0 0 0 0 0 0 0 0 0 0 0 0 0 0 0 0.25 0"/>
<feBlend mode="normal" in2="shape" result="effect1_innerShadow"/>
</filter>
<filter id="filter2_i" x="17.8247" y="49.3592" width="35.7863" height="35.8126" filterUnits="userSpaceOnUse" color-interpolation-filters="sRGB">
<feFlood flood-opacity="0" result="BackgroundImageFix"/>
<feBlend mode="normal" in="SourceGraphic" in2="BackgroundImageFix" result="shape"/>
<feColorMatrix in="SourceAlpha" type="matrix" values="0 0 0 0 0 0 0 0 0 0 0 0 0 0 0 0 0 0 127 0" result="hardAlpha"/>
<feOffset dx="8" dy="-6"/>
<feGaussianBlur stdDeviation="4"/>
<feComposite in2="hardAlpha" operator="arithmetic" k2="-1" k3="1"/>
<feColorMatrix type="matrix" values="0 0 0 0 0 0 0 0 0 0 0 0 0 0 0 0 0 0 0.25 0"/>
<feBlend mode="normal" in2="shape" result="effect1_innerShadow"/>
</filter>
<filter id="filter3_i" x="40.0454" y="65.7607" width="18.3962" height="23.7571" filterUnits="userSpaceOnUse" color-interpolation-filters="sRGB">
<feFlood flood-opacity="0" result="BackgroundImageFix"/>
<feBlend mode="normal" in="SourceGraphic" in2="BackgroundImageFix" result="shape"/>
<feColorMatrix in="SourceAlpha" type="matrix" values="0 0 0 0 0 0 0 0 0 0 0 0 0 0 0 0 0 0 127 0" result="hardAlpha"/>
<feOffset dx="8" dy="-6"/>
<feGaussianBlur stdDeviation="4"/>
<feComposite in2="hardAlpha" operator="arithmetic" k2="-1" k3="1"/>
<feColorMatrix type="matrix" values="0 0 0 0 0 0 0 0 0 0 0 0 0 0 0 0 0 0 0.25 0"/>
<feBlend mode="normal" in2="shape" result="effect1_innerShadow"/>
</filter>
<filter id="filter4_ii" x="45.2832" y="6.96054" width="70.0477" height="93.0049" filterUnits="userSpaceOnUse" color-interpolation-filters="sRGB">
<feFlood flood-opacity="0" result="BackgroundImageFix"/>
<feBlend mode="normal" in="SourceGraphic" in2="BackgroundImageFix" result="shape"/>
<feColorMatrix in="SourceAlpha" type="matrix" values="0 0 0 0 0 0 0 0 0 0 0 0 0 0 0 0 0 0 127 0" result="hardAlpha"/>
<feOffset dx="9" dy="-8"/>
<feGaussianBlur stdDeviation="7.5"/>
<feComposite in2="hardAlpha" operator="arithmetic" k2="-1" k3="1"/>
<feColorMatrix type="matrix" values="0 0 0 0 0 0 0 0 0 0 0 0 0 0 0 0 0 0 0.25 0"/>
<feBlend mode="normal" in2="shape" result="effect1_innerShadow"/>
<feColorMatrix in="SourceAlpha" type="matrix" values="0 0 0 0 0 0 0 0 0 0 0 0 0 0 0 0 0 0 127 0" result="hardAlpha"/>
<feOffset dx="-4" dy="-3"/>
<feGaussianBlur stdDeviation="2.5"/>
<feComposite in2="hardAlpha" operator="arithmetic" k2="-1" k3="1"/>
<feColorMatrix type="matrix" values="0 0 0 0 0 0 0 0 0 0 0 0 0 0 0 0 0 0 0.1 0"/>
<feBlend mode="normal" in2="effect1_innerShadow" result="effect2_innerShadow"/>
</filter>
<filter id="filter5_i" x="92.7339" y="49.9555" width="5.45412" height="36.4684" filterUnits="userSpaceOnUse" color-interpolation-filters="sRGB">
<feFlood flood-opacity="0" result="BackgroundImageFix"/>
<feBlend mode="normal" in="SourceGraphic" in2="BackgroundImageFix" result="shape"/>
<feColorMatrix in="SourceAlpha" type="matrix" values="0 0 0 0 0 0 0 0 0 0 0 0 0 0 0 0 0 0 127 0" result="hardAlpha"/>
<feOffset dy="-6"/>
<feGaussianBlur stdDeviation="4"/>
<feComposite in2="hardAlpha" operator="arithmetic" k2="-1" k3="1"/>
<feColorMatrix type="matrix" values="0 0 0 0 0 0 0 0 0 0 0 0 0 0 0 0 0 0 0.25 0"/>
<feBlend mode="normal" in2="shape" result="effect1_innerShadow"/>
</filter>
<filter id="filter6_i" x="34.1948" y="2.54999" width="15.5413" height="14.6488" filterUnits="userSpaceOnUse" color-interpolation-filters="sRGB">
<feFlood flood-opacity="0" result="BackgroundImageFix"/>
<feBlend mode="normal" in="SourceGraphic" in2="BackgroundImageFix" result="shape"/>
<feColorMatrix in="SourceAlpha" type="matrix" values="0 0 0 0 0 0 0 0 0 0 0 0 0 0 0 0 0 0 127 0" result="hardAlpha"/>
<feOffset dy="-6"/>
<feGaussianBlur stdDeviation="4"/>
<feComposite in2="hardAlpha" operator="arithmetic" k2="-1" k3="1"/>
<feColorMatrix type="matrix" values="0 0 0 0 0 0 0 0 0 0 0 0 0 0 0 0 0 0 0.25 0"/>
<feBlend mode="normal" in2="shape" result="effect1_innerShadow"/>
</filter>
<filter id="filter7_i" x="26.4048" y="-2.19998" width="72.3333" height="50.1889" filterUnits="userSpaceOnUse" color-interpolation-filters="sRGB">
<feFlood flood-opacity="0" result="BackgroundImageFix"/>
<feBlend mode="normal" in="SourceGraphic" in2="BackgroundImageFix" result="shape"/>
<feColorMatrix in="SourceAlpha" type="matrix" values="0 0 0 0 0 0 0 0 0 0 0 0 0 0 0 0 0 0 127 0" result="hardAlpha"/>
<feOffset dx="4" dy="-3"/>
<feGaussianBlur stdDeviation="2"/>
<feComposite in2="hardAlpha" operator="arithmetic" k2="-1" k3="1"/>
<feColorMatrix type="matrix" values="0 0 0 0 0 0 0 0 0 0 0 0 0 0 0 0 0 0 0.1 0"/>
<feBlend mode="normal" in2="shape" result="effect1_innerShadow"/>
</filter>
<filter id="filter8_i" x="42.9551" y="-0.172699" width="54.7723" height="48.1617" filterUnits="userSpaceOnUse" color-interpolation-filters="sRGB">
<feFlood flood-opacity="0" result="BackgroundImageFix"/>
<feBlend mode="normal" in="SourceGraphic" in2="BackgroundImageFix" result="shape"/>
<feColorMatrix in="SourceAlpha" type="matrix" values="0 0 0 0 0 0 0 0 0 0 0 0 0 0 0 0 0 0 127 0" result="hardAlpha"/>
<feOffset dx="3" dy="-6"/>
<feGaussianBlur stdDeviation="4"/>
<feComposite in2="hardAlpha" operator="arithmetic" k2="-1" k3="1"/>
<feColorMatrix type="matrix" values="0 0 0 0 0 0 0 0 0 0 0 0 0 0 0 0 0 0 0.25 0"/>
<feBlend mode="normal" in2="shape" result="effect1_innerShadow"/>
</filter>
<filter id="filter9_i" x="30.1187" y="16.577" width="11.6828" height="11.6254" filterUnits="userSpaceOnUse" color-interpolation-filters="sRGB">
<feFlood flood-opacity="0" result="BackgroundImageFix"/>
<feBlend mode="normal" in="SourceGraphic" in2="BackgroundImageFix" result="shape"/>
<feColorMatrix in="SourceAlpha" type="matrix" values="0 0 0 0 0 0 0 0 0 0 0 0 0 0 0 0 0 0 127 0" result="hardAlpha"/>
<feOffset dy="-3"/>
<feGaussianBlur stdDeviation="2"/>
<feComposite in2="hardAlpha" operator="arithmetic" k2="-1" k3="1"/>
<feColorMatrix type="matrix" values="0 0 0 0 0 0 0 0 0 0 0 0 0 0 0 0 0 0 0.25 0"/>
<feBlend mode="normal" in2="shape" result="effect1_innerShadow"/>
</filter>
<clipPath id="clip0">
<rect width="332.191" height="61.7284" fill="white" transform="translate(125.691 20.7531)"/>
</clipPath>
</defs>
</svg>
